<?xml version="1.0" encoding="UTF-8" standalone="no"?><!DOCTYPE svg PUBLIC "-//W3C//DTD SVG 1.1//EN" "http://www.w3.org/Graphics/SVG/1.1/DTD/svg11.dtd"><svg width="100%" height="100%" viewBox="0 0 2015 412" version="1.1" xmlns="http://www.w3.org/2000/svg" xmlns:xlink="http://www.w3.org/1999/xlink" xml:space="preserve" xmlns:serif="http://www.serif.com/" style="fill-rule:evenodd;clip-rule:evenodd;stroke-linejoin:round;stroke-miterlimit:2;"><path d="M388.369,175.202l41.511,29.329l-0.072,0.051l0.072,0l0,206.801l-42.003,0l-65.349,-46.171l0.119,0l-109.164,-77.127l-24.434,17.263l84.729,59.863l33.708,0l65.349,46.171l-126.153,0l-65.349,-46.171l0.027,0l-38.52,-27.216l-38.52,27.216l61.972,0l65.349,46.171l-231.641,0l-0,-206.801l0.072,0l-0.072,-0.051l65.279,-46.121l0,97.236l0.071,0l0,71.804l223.044,-157.586l-72.736,-51.389l0,-65.295l165.19,116.711l-46.209,32.648l-0.036,-0.026l-74.911,52.926l104.839,74.071l0,-105.853l-22.371,-15.806l46.209,-32.648Zm-182.876,-175.202l0,187.695l-130.775,92.396l0,-187.695l130.775,-92.396Zm-44.308,94.897l-42.16,29.787l0,60.51l42.16,-29.787l0,-60.51Zm395.976,232.131l-72.232,0l0,-242.673l72.232,0l0,121.336l42.699,-34.515l131.299,-86.821l99.275,0l-146.244,102.833l153.361,139.839l-95.717,0l-113.864,-103.901l-70.809,46.613l0,57.288Zm465.419,4.982c-139.128,0 -199.262,-39.497 -199.262,-126.318c0,-86.821 60.134,-126.318 199.262,-126.318c139.128,0 199.262,39.497 199.262,126.318c0,86.821 -60.134,126.318 -199.262,126.318Zm0,-61.914c97.14,0 125.606,-17.435 125.606,-64.404c0,-46.969 -28.466,-64.404 -125.606,-64.404c-97.496,0 -127.029,17.435 -127.029,64.404c0,46.969 29.533,64.404 127.029,64.404Zm302.807,56.932l-72.232,0l0,-242.673l243.028,0c59.779,0 101.41,20.994 101.41,84.686c0,53.374 -31.668,78.993 -85.398,83.263l-15.656,0.356l19.215,11.742l79.705,62.625l-90.735,0l-87.177,-70.453l-92.159,0l0,70.453Zm0,-180.759l0,56.22l163.679,0c23.84,0 33.803,-7.828 33.803,-27.754c0,-21.705 -9.963,-28.466 -33.803,-28.466l-163.679,0Zm601.7,180.759l-29.178,-46.969l-179.336,0l-29.533,46.969l-86.821,0l158.342,-242.673l96.073,0l157.986,242.673l-87.533,0Zm-177.201,-97.14l116.355,0l-57.999,-93.226l-58.355,93.226Z"/></svg>