<?xml version="1.0" encoding="UTF-8" standalone="no"?><!DOCTYPE svg PUBLIC "-//W3C//DTD SVG 1.1//EN" "http://www.w3.org/Graphics/SVG/1.1/DTD/svg11.dtd"><svg width="100%" height="100%" viewBox="0 0 521 138" version="1.1" xmlns="http://www.w3.org/2000/svg" xmlns:xlink="http://www.w3.org/1999/xlink" xml:space="preserve" xmlns:serif="http://www.serif.com/" style="fill-rule:evenodd;clip-rule:evenodd;stroke-linejoin:round;stroke-miterlimit:2;"><g><rect x="0" y="0" width="137.884" height="137.884" style="fill:none;"/><g><path d="M110.565,61.625l9.963,7.039l-0.017,0.012l0.017,0l0,49.632l-10.081,0l-15.684,-11.081l0.028,0l-26.199,-18.51l-5.864,4.143l20.335,14.367l8.09,0l15.684,11.081l-30.277,0l-15.684,-11.081l0.006,0l-9.245,-6.532l-9.245,6.532l14.873,0l15.684,11.081l-55.594,0l-0,-49.632l0.017,0l-0.017,-0.012l15.667,-11.069l0,23.337l0.017,0l0,17.233l53.531,-37.821l-17.457,-12.333l0,-15.671l39.646,28.011l-11.09,7.835l-0.009,-0.006l-17.979,12.702l25.161,17.777l0,-25.405l-5.369,-3.793l11.09,-7.835Z"/><path d="M66.675,19.576l0,45.047l-31.386,22.175l0,-45.047l31.386,-22.175Zm-10.634,22.775l-10.118,7.149l0,14.522l10.118,-7.149l0,-14.522Z"/></g></g><g transform="matrix(85.397966,0,0,85.397966,519.281311,98.062797)"></g><text x="148.483px" y="98.063px" style="font-family:'Panchang-Bold', 'Panchang';font-weight:700;font-size:85.398px;">K<tspan x="231.405px 332.858px 422.269px " y="98.063px 98.063px 98.063px ">ORA</tspan></text></svg>