<?xml version="1.0" encoding="UTF-8" standalone="no"?><!DOCTYPE svg PUBLIC "-//W3C//DTD SVG 1.1//EN" "http://www.w3.org/Graphics/SVG/1.1/DTD/svg11.dtd"><svg width="100%" height="100%" viewBox="0 0 430 412" version="1.1" xmlns="http://www.w3.org/2000/svg" xmlns:xlink="http://www.w3.org/1999/xlink" xml:space="preserve" xmlns:serif="http://www.serif.com/" style="fill-rule:evenodd;clip-rule:evenodd;stroke-linejoin:round;stroke-miterlimit:2;"><g><path d="M388.369,175.202l41.511,29.329l-0.072,0.051l0.072,0l0,206.801l-42.003,0l-65.349,-46.171l0.119,0l-109.164,-77.127l-24.434,17.263l84.729,59.863l33.708,0l65.349,46.171l-126.153,0l-65.349,-46.171l0.027,0l-38.52,-27.216l-38.52,27.216l61.972,0l65.349,46.171l-231.641,0l-0,-206.801l0.072,0l-0.072,-0.051l65.279,-46.121l0,97.236l0.071,0l0,71.804l223.044,-157.586l-72.736,-51.389l0,-65.295l165.19,116.711l-46.209,32.648l-0.036,-0.026l-74.911,52.926l104.839,74.071l0,-105.853l-22.371,-15.806l46.209,-32.648Z"/><path d="M205.493,0l0,187.695l-130.775,92.396l0,-187.695l130.775,-92.396Zm-44.308,94.897l-42.16,29.787l0,60.51l42.16,-29.787l0,-60.51Z"/></g></svg>