<?xml version="1.0" encoding="UTF-8" standalone="no"?><!DOCTYPE svg PUBLIC "-//W3C//DTD SVG 1.1//EN" "http://www.w3.org/Graphics/SVG/1.1/DTD/svg11.dtd"><svg width="100%" height="100%" viewBox="0 0 122 124" version="1.1" xmlns="http://www.w3.org/2000/svg" xmlns:xlink="http://www.w3.org/1999/xlink" xml:space="preserve" xmlns:serif="http://www.serif.com/" style="fill-rule:evenodd;clip-rule:evenodd;stroke-linejoin:round;stroke-miterlimit:2;" fill="#FFFFFF"><g><path d="M110.012,52.78l11.759,8.835l-0.02,0.015l0.02,0l0,62.3l-11.898,0l-18.511,-13.909l0.034,0l-30.922,-23.235l-6.921,5.201l24.001,18.034l9.548,0l18.511,13.909l-35.735,0l-18.511,-13.909l0.008,0l-10.912,-8.199l-10.912,8.199l17.555,0l18.511,13.909l-65.616,0l-0,-62.3l0.02,0l-0.02,-0.015l18.491,-13.894l0,29.293l0.02,0l0,21.631l63.181,-47.474l-20.604,-15.481l0,-19.671l46.793,35.16l-13.089,9.835l-0.01,-0.008l-21.22,15.944l29.697,22.314l0,-31.889l-6.337,-4.762l13.089,-9.835Z"/><path d="M58.209,0l0,56.544l-37.044,27.835l0,-56.544l37.044,-27.835Zm-12.551,28.588l-11.942,8.973l0,18.229l11.942,-8.973l0,-18.229Z"/></g></svg>
